<?xml version="1.0" standalone="no"?>
<!DOCTYPE svg PUBLIC "-//W3C//DTD SVG 20010904//EN"
 "http://www.w3.org/TR/2001/REC-SVG-20010904/DTD/svg10.dtd">
<svg version="1.0" xmlns="http://www.w3.org/2000/svg"
 width="266.000000pt" height="266.000000pt" viewBox="0 0 266.000000 266.000000"
 preserveAspectRatio="xMidYMid meet">
<metadata>
Created by potrace 1.14, written by Peter Selinger 2001-2017
</metadata>
<g transform="translate(0.000000,266.000000) scale(0.100000,-0.100000)"
fill="#000000" stroke="none">
<path d="M1042 2649 c-45 -17 -72 -59 -72 -111 1 -81 51 -118 164 -121 l76 -1
0 -62 0 -63 -57 -11 c-119 -23 -249 -75 -358 -145 -30 -19 -57 -35 -60 -35 -8
0 -135 128 -135 136 0 4 24 31 54 60 54 53 76 93 70 128 -8 57 -47 101 -98
110 -59 11 -87 -9 -283 -206 -106 -106 -199 -206 -207 -222 -28 -54 0 -133 55
-156 65 -28 107 -13 183 65 24 25 46 45 48 45 3 0 36 -30 74 -66 68 -66 68
-66 52 -93 -107 -172 -140 -252 -174 -428 -4 -21 -10 -23 -68 -23 l-64 0 0 73
c0 39 -5 84 -11 99 -23 59 -113 86 -171 52 -56 -33 -58 -46 -59 -330 0 -257 4
-311 31 -337 57 -58 158 -45 194 24 10 20 16 57 16 105 l0 74 63 0 64 0 11
-58 c25 -127 76 -252 146 -358 19 -28 34 -54 34 -58 0 -8 -127 -136 -135 -136
-3 0 -31 24 -61 54 -70 68 -99 81 -151 67 -80 -22 -116 -106 -75 -173 11 -18
108 -119 214 -224 202 -200 221 -214 288 -199 25 6 78 53 81 73 0 4 3 19 5 34
6 38 -17 80 -76 137 -28 26 -50 51 -50 55 0 3 35 42 79 85 l78 79 -14 73 c-19
98 -19 274 1 380 98 521 544 892 1071 891 106 0 136 -3 217 -21 37 -9 39 -8
119 70 44 43 83 79 86 79 3 0 30 -24 59 -54 55 -54 93 -75 128 -70 83 12 127
79 105 159 -12 43 -407 434 -440 436 -100 6 -148 -30 -151 -115 -1 -40 13 -64
77 -129 42 -42 46 -49 34 -64 -22 -28 -118 -123 -124 -123 -3 0 -30 16 -60 35
-124 79 -291 142 -408 154 -4 1 -7 29 -5 64 l3 62 77 2 c86 3 120 18 144 64
31 60 9 135 -48 162 -27 13 -78 15 -298 15 -146 0 -275 -4 -288 -9z"/>
<path d="M1827 1694 c-1 -1 -31 -3 -67 -5 -188 -7 -393 -97 -536 -237 -268
-260 -332 -686 -153 -1008 159 -287 450 -452 778 -440 133 5 232 31 357 94 63
32 193 130 229 173 162 191 233 392 221 625 -21 408 -341 745 -754 792 -40 5
-73 7 -75 6z m42 -378 c60 -32 64 -49 65 -287 0 -188 -2 -220 -17 -243 -38
-58 -107 -75 -166 -40 -57 34 -63 61 -59 294 3 193 5 211 24 237 39 52 98 67
153 39z m-3 -726 c138 -67 40 -275 -102 -215 -106 44 -89 197 26 226 14 4 27
7 29 8 3 0 24 -8 47 -19z"/>
</g>
</svg>
